<?xml version="1.0" encoding="UTF-8"?>
<svg id="Layer_2" data-name="Layer 2" xmlns="http://www.w3.org/2000/svg" viewBox="0 0 106.13 105.51">
  <g id="Layer_1-2" data-name="Layer 1">
    <path d="M49.68.08C11.25,2.02-11.88,43.65,6.32,77.66c17.26,32.25,62.22,37.72,86.37,9.98C123.93,51.76,97.06-2.32,49.68.08ZM62.28,82.44c-3.27.01-6.5.15-9.7-.61-7.33-1.76-12.24-7.5-12.85-15.03V31.06s-19.26,0-19.26,0v-10.52h30.2v44.48c0,2.39,2.5,6.22,5.12,6.22h6.49v11.2ZM79.57,52.24c-6.93,7.29-18.63,1.62-17.56-8.27.46-4.25,4.79-8.21,8.99-8.63,8.84-.89,14.98,10.17,8.57,16.9Z"/>
  </g>
</svg>