<?xml version="1.0" encoding="UTF-8"?>
<svg id="Layer_2" xmlns="http://www.w3.org/2000/svg" viewBox="0 0 73.05 102.1">
  <defs>
    <style>
      .cls-1 {
        stroke: #000;
        stroke-miterlimit: 10;
      }
    </style>
  </defs>
  <g id="Layer_1-2" data-name="Layer_1">
    <g>
      <path class="cls-1" d="M45.07,22.54c1.59,4.78,2.35,9.66,2.19,14.66-.09,2.38-.4,4.78-.87,7.12-.65,3.26-3.85,5.41-7.07,4.99-2.71-.35-4.92-2.53-5.33-5.44-.18-1.31-.17-2.67-.05-3.99.43-4.63.15-9.22-1.59-13.55-2.83-7.03-5.52-10.23-12.96-12.2-3.34-.89-6.71-.78-10.07.04-2.27.55-4.45.43-6.39-1.05C-.44,10.54-.28,5.68,3.26,3.13c1.55-1.12,3.37-1.6,5.2-1.97,4.45-.92,8.91-.87,13.33.12,5.76,1.29,8.61,2.26,13.05,6.18,3.24,2.85,5.84,6.22,7.87,10,.88,1.64,1.58,3.38,2.37,5.08Z"/>
      <path d="M72.63,91.61c1.45,4.24-1.04,8.71-5.22,10.09-4.15,1.37-8.74-.9-10.03-4.91-1.34-4.16,1-8.47,5.34-9.87,4.21-1.35,8.57.76,9.91,4.69Z"/>
      <path d="M51.87,84c1.31,4.12-1.1,8.59-5.35,9.92-4.24,1.34-8.68-.94-10-5.15-1.26-4.04,1.12-8.41,5.31-9.74,4.36-1.39,8.71.77,10.04,4.97Z"/>
      <path d="M48.27,61.74c1.33,4.06-.91,8.42-5.05,9.8-4.22,1.41-8.6-.72-9.96-4.83-1.35-4.08.89-8.45,5.08-9.85,4.15-1.4,8.59.78,9.93,4.88Z"/>
    </g>
  </g>
</svg>