<?xml version="1.0" encoding="UTF-8"?>
<svg id="Layer_2" xmlns="http://www.w3.org/2000/svg" viewBox="0 0 41.81 61.92">
  <g id="Layer_1-2" data-name="Layer_1">
    <path d="M41.81,53.14v6.34c0,1.35-1.09,2.44-2.44,2.44-2.44,0-4.86-.06-7.26-.63-7.29-1.75-12.18-7.43-12.84-14.9,0-.09-.01-.18-.01-.27V12.96c0-1.35-1.08-2.44-2.43-2.44H2.44c-1.35,0-2.44-1.09-2.44-2.44V2.44C0,1.09,1.09,0,2.44,0h25.32c1.35,0,2.44,1.09,2.44,2.44v42.04c0,2.39,2.5,6.22,5.12,6.22h4.05c1.35,0,2.44,1.09,2.44,2.44Z"/>
  </g>
</svg>